OpenSim_Sub03_CSStiffKnee_LCS.mot
version=1
nRows=82
nColumns=11
inDegrees=no
endheader
time	Bot_Shank	2nd_Bot_Shank	2nd_Top_Shank	Top_Shank	Bot_Thigh	Med_Thigh	Top_Thigh	BNOx	BNOy	BNOZ
9.09000000	1310.78246341	1279.17654932	1159.57518759	984.24663483	1139.61970454	958.74263929	975.73991906	221.75351332	-73.50746210	-151.64955004
9.10000000	1309.97940658	1278.38534458	1159.26329313	983.86342433	1139.45628234	958.63883927	976.21251172	221.20330579	-73.33250906	-147.87614095
9.11000000	1308.71823567	1277.57550107	1159.01840096	983.72873580	1139.43676902	958.63875126	976.51333142	220.61642623	-73.19160442	-145.53633126
9.12000000	1307.11349126	1276.76825614	1158.83687400	983.80504034	1139.53241192	958.72277469	976.66053432	219.99822481	-73.07572961	-144.38387663
9.13000000	1305.27971391	1275.98484713	1158.71507517	984.05480908	1139.71445839	958.87130895	976.67227656	219.35405171	-72.97586607	-144.17253269
9.14000000	1303.33144421	1275.24651137	1158.64936738	984.44051310	1139.95415576	959.06475346	976.56671432	218.68925710	-72.88299525	-144.65605509
9.15000000	1301.38322271	1274.57448621	1158.63611354	984.92462352	1140.22275139	959.28350764	976.36200373	218.00919114	-72.78809856	-145.58819946
9.16000000	1299.54958999	1273.99000899	1158.67167658	985.46961144	1140.49149261	959.50797088	976.07630096	217.31920400	-72.68215745	-146.72272145
9.17000000	1297.94508661	1273.51431703	1158.75241941	986.03794798	1140.73162677	959.71854260	975.72776217	216.62464585	-72.55615335	-147.81337671
9.18000000	1296.68425316	1273.16864770	1158.87470494	986.59210422	1140.91440122	959.89562222	975.33454350	215.93086687	-72.40106771	-148.61392087
9.19000000	1295.88118922	1272.97406681	1159.03476654	987.09463563	1141.01116592	960.01965710	974.91479807	215.24322666	-72.20791524	-148.87870498
9.20000000	1295.55650749	1272.91528082	1159.20137094	987.52597776	1141.01502634	960.08126118	974.48603125	214.56908511	-71.97476929	-148.48830586
9.21000000	1295.52223907	1272.89587366	1159.28200322	987.90645904	1140.96762737	960.09373141	974.06430330	213.92026501	-71.71545188	-147.60492672
9.22000000	1295.56219259	1272.80845280	1159.17585664	988.26180570	1140.91718160	960.07343389	973.66547897	213.30919302	-71.44591591	-146.42887663
9.23000000	1295.46017669	1272.54562575	1158.78212448	988.61774395	1140.91190161	960.03673472	973.30542296	212.74829580	-71.18211431	-145.16046469
9.24000000	1295.00000000	1272.00000000	1158.00000000	989.00000000	1141	960	973.00000000	212.25000000	-70.94000000	-144.00000000
9.25000000	1294.02413435	1271.09778125	1156.76512495	989.43017013	1141.21752132	959.97634421	972.75996675	211.82238008	-70.73199642	-143.10528946
9.26000000	1292.60970433	1269.89956809	1155.15893500	989.91333089	1141.55183803	959.96587535	972.57564758	211.45610165	-70.55640912	-142.46413126
9.27000000	1290.89249770	1268.49955732	1153.29931427	990.45042891	1141.97815455	959.96544984	972.43225877	211.13747815	-70.40801420	-142.02182140
9.28000000	1289.00830225	1266.99194572	1151.30414691	991.04241081	1142.47167530	959.97192405	972.31501663	210.85282300	-70.28158775	-141.72365589
9.29000000	1287.09290575	1265.47093009	1149.29131705	991.69022321	1143.00760471	959.98215437	972.20913745	210.58844961	-70.17190586	-141.51493074
9.30000000	1285.28209599	1264.03070724	1147.37870884	992.39481273	1143.56114721	959.99299722	972.09983753	210.33067141	-70.07374461	-141.34094194
9.31000000	1283.71143427	1262.76532008	1145.68400515	993.15709495	1144.10753985	960.00131461	971.97235169	210.06582289	-69.98188547	-141.14706613
9.32000000	1282.46847408	1261.73619087	1144.28222078	993.97140571	1144.62893855	960.00516518	971.81584586	209.78470595	-69.89225053	-140.89577089
9.33000000	1281.53365708	1260.93196083	1143.15317244	994.81740049	1145.12293609	960.00527724	971.62825667	209.48808988	-69.80330677	-140.58765601
9.34000000	1280.87293195	1260.33142344	1142.26379591	995.67274846	1145.58921395	960.00274039	971.40870749	209.17809261	-69.71386549	-140.22848082
9.35000000	1280.45224743	1259.91337217	1141.58102696	996.51511876	1146.02745362	959.99864417	971.15632170	208.85683208	-69.62273800	-139.82400466
9.36000000	1280.23755221	1259.65660048	1141.07180138	997.32218056	1146.43733660	959.99407817	970.87022268	208.52642620	-69.52873562	-139.37998685
9.37000000	1280.19479501	1259.53990186	1140.70305495	998.07160301	1146.81854437	959.99013195	970.54953381	208.18899293	-69.43066964	-138.90218672
9.38000000	1280.28992453	1259.54206979	1140.44172345	998.74105527	1147.17075842	959.98789508	970.19337846	207.84665019	-69.32735139	-138.39636361
9.39000000	1280.48888949	1259.64189772	1140.25474265	999.30820648	1147.49366023	959.98845713	969.80088001	207.50151592	-69.21759216	-137.86827683
9.40000000	1280.75763860	1259.81817914	1140.10904834	999.75072582	1147.78693131	959.99290767	969.37116183	207.15570804	-69.10020327	-137.32368573
9.41000000	1281.06212397	1260.04969082	1139.97161578	1000.04636468	1148.05019635	960.00232658	968.90340492	206.81130448	-68.97399040	-136.76830131
9.42000000	1281.36902161	1260.31166864	1139.81779277	1000.19031413	1148.27104179	960.01574138	968.40900311	206.46189866	-68.83656600	-136.19759233
9.43000000	1281.64662254	1260.57144832	1139.64160727	1000.21667532	1148.41019508	960.02760045	967.92659879	206.08215406	-68.68288028	-135.58417568
9.44000000	1281.86343632	1260.79529662	1139.43961480	1000.16481418	1148.42474950	960.03173257	967.49852121	205.64417278	-68.50752322	-134.89757623
9.45000000	1281.98797250	1260.94948031	1139.20837088	1000.07409667	1148.27179831	960.02196654	967.16709965	205.12005694	-68.30508482	-134.10731887
9.46000000	1281.98886636	1261.00036418	1138.94448323	999.98383022	1147.90855922	959.99215300	966.97459265	204.48196817	-68.07016393	-133.18299940
9.47000000	1281.86140457	1260.93509703	1138.65562921	999.92091409	1147.31863070	959.94077313	966.94826476	203.71468637	-67.79924041	-132.10924895
9.48000000	1281.66033661	1260.78719945	1138.37418388	999.88456341	1146.54447024	959.87663950	967.08192696	202.83114451	-67.49299086	-130.90424445
9.49000000	1281.44845766	1260.59646643	1138.13586409	999.87024742	1145.63649932	959.80996258	967.36486374	201.84808486	-67.15265971	-129.59070180
9.50000000	1281.28856290	1260.40269299	1137.97638669	999.87343538	1144.64513943	959.75095284	967.78635959	200.78224965	-66.77949142	-128.19133688
9.51000000	1281.24344752	1260.24567413	1137.93146852	999.88959654	1143.62081205	959.70982074	968.33569900	199.65038116	-66.37473043	-126.72886561
9.52000000	1281.37590670	1260.16520484	1138.03682643	999.91420015	1142.61393867	959.69677675	969.00216646	198.46922163	-65.93962119	-125.22600386
9.53000000	1281.74873563	1260.20108012	1138.32817727	999.94271546	1141.67494078	959.72203134	969.77504646	197.25551332	-65.47540813	-123.70546753
9.54000000	1282.42472949	1260.39309500	1138.84123787	999.97061174	1140.85423986	959.79579498	970.64362349	196.02599848	-64.98333571	-122.18997253
9.55000000	1283.46668346	1260.78104445	1139.61172509	999.99335823	1140.20225740	959.92827813	971.59718203	194.79741937	-64.46464836	-120.70223474
9.56000000	1284.92683756	1261.40153146	1140.66839125	1000.00670466	1139.76719552	960.12804630	972.62296153	193.58542355	-63.92013748	-119.26431197
9.57000000	1286.69949525	1262.24339665	1141.93577882	1000.01059740	1139.56404800	960.37905137	973.67760141	192.38927866	-63.34381529	-117.88841518
9.58000000	1288.55738014	1263.25871313	1143.25820935	1000.00821342	1139.58224477	960.64629764	974.69418513	191.19564302	-62.72447545	-116.57917517
9.59000000	1290.27008835	1264.39860821	1144.47794081	1000.00281279	1139.81055819	960.89430201	975.60519022	189.99085062	-62.05077734	-115.34102777
9.60000000	1291.61370830	1265.61440175	1145.44152602	999.99758336	1140.23686996	961.08850634	976.34491445	188.76235153	-61.31242601	-114.17882044
9.61000000	1292.51365066	1266.86184263	1146.09429954	999.99405201	1140.82857699	961.21562730	976.88952154	187.52326597	-60.52317621	-113.10686804
9.62000000	1293.04464833	1268.10110868	1146.48037766	999.99208463	1141.53259140	961.28365632	977.25704108	186.31238432	-59.72083240	-112.14895285
9.63000000	1293.28792651	1269.29257034	1146.64817152	999.99147490	1142.29493467	961.30150982	977.46732296	185.16961304	-58.94424468	-111.32926879
9.64000000	1293.32471038	1270.39659800	1146.64609227	999.99201650	1143.06162829	961.27810422	977.54021705	184.13485857	-58.23226316	-110.67200977
9.65000000	1293.23622515	1271.37356209	1146.52255105	999.99350310	1143.77869373	961.22235594	977.49557321	183.24802740	-57.62373794	-110.20136970
9.66000000	1293.10369599	1272.18383301	1146.32595900	999.99572838	1144.39215247	961.14318139	977.35324133	182.54902597	-57.15751913	-109.94154250
9.67000000	1293.00834810	1272.78778119	1146.10472726	999.99848602	1144.84802599	961.04949700	977.13307126	182.07776076	-56.87245681	-109.91672207
9.68000000	1293.02896253	1273.14705977	1145.90578541	1000.00157036	1145.09413445	960.95005461	976.85470617	181.87281087	-56.80611112	-110.14951253
9.69000000	1293.18810531	1273.25282502	1145.74198655	1000.00479094	1145.11966793	960.84982052	976.53303451	181.94222657	-56.96637245	-110.62595245
9.70000000	1293.45212741	1273.12573628	1145.59210735	1000.00797251	1144.95518636	960.74997557	976.17819009	182.26352924	-57.33146151	-111.29551487
9.71000000	1293.78493568	1272.78773564	1145.43344292	1000.01094049	1144.63304836	960.65153597	975.80009997	182.81291291	-57.87830901	-112.10608303
9.72000000	1294.15043698	1272.26076519	1145.24328833	1000.01352029	1144.18561259	960.55551794	975.40869122	183.56657163	-58.58384567	-113.00554017
9.73000000	1294.51253815	1271.56676702	1144.99893867	1000.01553732	1143.64523766	960.46293772	975.01389092	184.50069945	-59.42500220	-113.94176952
9.74000000	1294.83514605	1270.72768324	1144.67768904	1000.01681699	1143.04428222	960.37481153	974.62562612	185.59149039	-60.37870931	-114.86265434
9.75000000	1295.08216752	1269.76545591	1144.25683453	1000.01718472	1142.41510489	960.29215559	974.25382391	186.81513852	-61.42189771	-115.71607785
9.76000000	1295.21750941	1268.70202715	1143.71367022	1000.01646591	1141.79006432	960.21598614	973.90841135	188.14783786	-62.53149813	-116.44992330
9.77000000	1295.20507858	1267.55933903	1143.02549121	1000.01448599	1141.20151913	960.14731939	973.59931551	189.56578246	-63.68444127	-117.01207392
9.78000000	1295.00878186	1266.35933366	1142.16959258	1000.01107036	1140.68182796	960.08717158	973.33646346	191.04516636	-64.85765784	-117.35041295
9.79000000	1294.59252612	1265.12395312	1141.12326942	1000.00604443	1140.26334944	960.03655892	973.12978227	192.56218360	-66.02807856	-117.41282363
9.80000000	1293.92024528	1263.87514971	1139.86382131	999.99923440	1139.97843067	959.99649835	972.98919508	194.09303570	-67.17264040	-117.14737081
9.81000000	1292.99180358	1262.64843185	1138.37450235	999.99149558	1139.84410580	959.96893715	972.91941650	195.62384336	-68.27657314	-116.74311563
9.82000000	1291.91382734	1261.51958804	1136.65625968	999.98674123	1139.83190871	959.95858703	972.90968469	197.17020077	-69.34974756	-117.10520695
9.83000000	1290.81268151	1260.57185393	1134.71331162	999.98944996	1139.90496097	959.97067082	972.94637644	198.75315133	-70.40659018	-119.27118722
9.84000000	1289.81452661	1259.88826434	1132.55003425	1000.00408018	1140.02639293	960.01037300	973.01585573	200.39368576	-71.46148628	-124.27411733
9.85000000	1289.00218027	1259.50927287	1130.20425051	1000.03080380	1140.16119823	960.07475012	973.10177199	202.10162899	-72.52007772	-132.19696839
9.86000000	1288.36175633	1259.38032878	1127.78840769	1000.06022907	1140.27852772	960.14272433	973.18171810	203.86189365	-73.56849865	-141.00293574
9.87000000	1287.86628401	1259.43402661	1125.42505021	1000.08167021	1140.34809477	960.19076402	973.23246743	205.65602155	-74.59024367	-148.36839516
9.88000000	1287.48879252	1259.60296092	1123.23672254	1000.08444144	1140.33961272	960.19533762	973.23079335	207.46555450	-75.56880740	-151.96972243
9.89000000	1287.20231108	1259.81972627	1121.34596912	1000.05785696	1140.22279495	960.13291354	973.15346926	209.27203430	-76.48768446	-149.48329332
9.90000000	1286.97987470	1260.01693073	1119.87530015	999.99123633	1139.96736861	959.97996983	972.97727648	211.05700579	-77.33037139	-138.58623362
